<?xml version="1.0" encoding="UTF-8"?><svg id="Layer_2" xmlns="http://www.w3.org/2000/svg" viewBox="0 0 102.0216 127.9553"><g id="Components"><g id="fbe67dfa-9271-484b-88c8-7d570724125a_7"><path d="m37.0709,35.005c.8233.299,1.6532.6035,2.478.8955.8277.2965.9599.6535,1.0238,1.608.0295.3767.4549.7599.8722.8544.2989.0667,1.138.2529,1.4332.3226.2988.0709.5956.1482.8945.2156.421.0949.7425-.1462.7504-.5153.011-.5102.2392-.6681.6388-.5377,1.4529.4762,2.9161.9399,4.3773,1.3592,1.1969.3412,1.3185.4601,1.9962.6683,1.7252.5195,2.8542.6145,2.4978,2.1975l-2.7947,12.4708,11.8832-6.5625.681-3.9542c.3059-1.7821,1.2381-1.2612,3.2345-1.0654.6765.0699,1.1023.0678,2.2891.2033.707.0841,1.4174.1508,2.1236.2171.0106.001.0213.0023.0318.0033.2316.0245.7234.072.5573.5041-.1412.3425.0657.6893.4909.7636.3016.0527.6061.0956.9055.1444.2986.0491,1.1521.2014,1.4501.2541.4251.0739.9652-.1161,1.1337-.4532.2491-.4993.6145-.815,1.145-.7816.0695.0043.1396.0063.2092.0105,1.6877.1017,3.3861.1815,5.0753.254,2.3187.093,3.5716-6.9706,1.3886-7.6544-1.6452-.5143-3.2962-1.0412-4.944-1.5453-.414-.1265-.7084-.3269-.7472-.8253-.0813-1.0089-2.3056-1.1959-3.2161-1.4033-.4217-.0916-.7395.1502-.7482.5231-.0026.2501-.3873.1912-.5331.1551-.7563-.2132-1.5171-.4274-2.2756-.6335-1.8019-.4805-2.0782-.6411-3.2195-.9348-1.3069-.3379-1.9985-.6033-1.7896-1.7393l.6355-3.4684c.2505-.9422.332-1.8056,1.4329-2.0943,4.4797-1.1834,8.047-4.6432,9.0139-9.4772,1.3532-6.7657-3.063-13.3874-9.8265-14.7402-6.7635-1.3528-13.3833,3.0615-14.7365,9.8272-.9662,4.8304.7143,9.4454,4.3911,12.2529,1.148.8766.8806,1.5211.637,2.7957l-.6842,3.1494c-.1854.8499-1.1346,1.0198-2.1415.8731-1.268-.1883-1.4773-.121-3.41-.384-1.3987-.1852-2.8155-.3523-4.2309-.5118-.3022-.0313-.9877-.0594-.7866-.5751.1391-.3468-.0649-.693-.4856-.7699-.9873-.1684-3.0538-.8144-3.5085.0582-.2506.4914-.6182.745-1.1533.6961-.9246-.0832-1.8538-.1672-2.7786-.2504-2.2743-.2077-3.8347,6.7982-1.6615,7.5998Zm22.136-23.5238c.6523-3.2614,3.853-5.3932,7.1137-4.741,3.2652.6531,5.3951,3.8511,4.7428,7.1125-.2831,1.4155-1.3635,2.5662-2.4066,3.4191-.2134.1754-.3491.0538-.5898.2019-2.1312-2.4654-7.5507-1.9974-7.9395-1.8134-.2398-.3315-.3303-.1315-.4971-.4993-.5048-1.1115-.6815-2.3902-.4235-3.6798Z" style="fill:#fff; stroke-width:0px;"/><path d="m101.0759,76.4676c-1.5653-7.6782-1.2927-5.915-4.0352-.7635-3.6289,6.821-9.7754,12.6876-14.7164,15.4509-1.3145.7405-2.898,1.4416-.5422,2.0219,1.0492.2607,2.2636.5327,3.2794.7615,2.6808.6089,3.1409.7078,1.1061,2.4859-6.2796,5.4765-25.2254,7.598-28.7082-3.4883-1.2582-4.0079-.5998-8.5903.1269-12.8149l-15.9043,8.783c-.0155.0222-.0277.0455-.0433.0677-2.2592,3.2009-5.3233,4.5693-8.6139,4.7133-1.3762.0602-2.7903-.0936-4.2044-.4222-6.5308-1.5178-13.0168-6.7161-15.3158-11.3725-1.1951-2.424-.7243-2.3405,1.9764-1.8693,1.0292.1803,2.2513.3956,3.3237.5593,2.5501.3937,1.297-.7948.3955-1.9203-3.7041-4.6379-7.3528-13.042-7.8462-21.1708-.3378-5.5423-.2474-5.306-3.7173-.1328C-.3318,69.2422-.3838,80.0975.2332,85.5758c.2614,2.328.8295,1.5581,1.4038-.1118.7327-2.1364,1.5296-4.3036,3.2639-3.1061,5.1619,15.05,11.7518,19.6545,23.5179,28.4931,5.0445,3.7864,9.511,8.2971,11.9159,13.8127,1.8292,4.1974,1.3985,4.2422,4.6.9201,4.2248-4.3825,10.2636-6.6572,16.7166-8.202,13.9294-3.3391,22.1556-5.7908,32.2779-17.2167,1.9699-.413,1.9718,1.6667,1.8407,3.8144-.178,2.8872.4567,2.4761,1.7081.1454,2.6873-5.0211,6.2764-14.5508,3.598-27.6573Z" style="fill:#fff; stroke-width:0px;"/><polygon points="70.8863 47.8352 62.3335 52.5584 62.3335 52.5584 70.8863 47.8352" style="fill:#fff; stroke-width:0px;"/><rect x="56.2563" y="48.9723" width="0" height="13.8844" style="fill:#fff; stroke-width:0px;"/><polygon points="60.6456 65.6412 70.8863 47.8351 62.3335 52.5584 50.1793 59.2706 50.1793 59.2705 37.5674 66.2353 37.5676 66.2354 37.5676 66.2354 47.9423 69.2528 48.8434 69.5149 47.3902 71.7159 37.1097 87.2877 44.5176 83.1968 58.3747 75.5442 70.904 68.6249 60.6456 65.6412" style="fill:#68bd45; stroke-width:0px;"/></g></g></svg>