<?xml version="1.0" encoding="UTF-8"?><svg id="Layer_2" xmlns="http://www.w3.org/2000/svg" viewBox="0 0 617.7703 126.953"><g id="Components"><g id="f34dc911-bbb0-415d-b6c2-c57f1618561e_7"><path d="m161.9801,62.3887c.002,2.203-.4212,4.2688-1.2612,6.1979-.8416,1.93-1.986,3.6187-3.4332,5.0662-1.4481,1.4479-3.136,2.5925-5.0662,3.4332-1.9326.8412-3.9967,1.2616-6.1983,1.2616h-26.6101V25.1266h26.6101c2.2024.0002,4.2696.4218,6.1983,1.2624,1.9294.8418,3.6189,1.9848,5.0662,3.4325,1.4461,1.4484,2.5929,3.1371,3.4332,5.0662.8436,1.9308,1.2604,3.9961,1.2612,6.1979-.0044.9898-.1351,2.0037-.4076,3.0435-.2722,1.0394-.6555,2.0412-1.1512,3.0061-.4941.9657-1.0886,1.8439-1.7812,2.6355-.691.7916-1.4592,1.4473-2.3012,1.9669.8643.4705,1.6421,1.1065,2.3382,1.9111.6949.8039,1.2855,1.6891,1.7812,2.6538.4949.9655.8727,1.9736,1.1321,3.0244.261,1.0512.3901,2.0727.3897,3.0619Zm-31.9177-15.9589c5.3192,0,10.6396,0,15.9589,0,.7416.0006,1.4349-.1359,2.0788-.408.6443-.2718,1.2014-.6489,1.6879-1.1317.4837-.4822.8583-1.0532,1.1321-1.7079.2726-.655.408-1.3539.4076-2.0968-.0024-.7417-.1371-1.4344-.4076-2.0784-.2738-.643-.6507-1.2059-1.1321-1.6887-.4865-.4818-1.046-.8591-1.6879-1.1317-.6423-.2724-1.3365-.4076-2.0788-.408h-15.9589v10.6512Zm0,21.2665h15.9589c.7416-.0003,1.4349-.1364,2.0788-.4088.6443-.2711,1.2014-.6492,1.6879-1.1317.4837-.4826.8583-1.0448,1.1321-1.6887.2726-.644.408-1.335.4076-2.0784-.0024-.7423-.1371-1.435-.4076-2.0784-.2738-.6429-.6507-1.2056-1.1321-1.6887-.4865-.482-1.046-.8583-1.6879-1.1317-.6423-.2715-1.3365-.4085-2.0788-.408-5.3192,0-10.6396,0-15.9589,0v10.6145Z" style="fill:#fff; stroke-width:0px;"/><path d="m207.2962,78.3476h-37.2625c-.0004-17.7402-.0004-35.4807,0-53.2209h10.6512c-.0004,14.1899-.0004,28.3798,0,42.5697h26.6113v10.6512Z" style="fill:#fff; stroke-width:0px;"/><path d="m252.9816,57.0818c.002,2.9447-.5575,5.7101-1.67,8.2946-1.1117,2.5863-2.6339,4.8371-4.5653,6.7549-1.9294,1.9183-4.1848,3.4321-6.7733,4.5458-2.5853,1.113-5.3523,1.6711-8.2938,1.6704-2.9459-.0003-5.7097-.5572-8.295-1.6704-2.5853-1.1125-4.8399-2.6287-6.7553-4.5458-1.9194-1.9174-3.4321-4.1681-4.5462-6.7549-1.1109-2.5861-1.6696-5.3499-1.67-8.2946v-31.9552h10.6153v31.9552c.0024,1.46.2773,2.8331.8344,4.1194.5567,1.2871,1.317,2.4124,2.2821,3.3775.9671.9652,2.0988,1.7259,3.3962,2.2825,1.297.5557,2.6805.8354,4.1385.8352,1.4604-.0002,2.8367-.2785,4.1374-.8352,1.299-.5567,2.4267-1.3176,3.3962-2.2825.9663-.9652,1.7242-2.0911,2.2833-3.3775.5539-1.2859.8328-2.6592.8344-4.1194-.0004-10.6516-.0004-21.3034,0-31.9552h10.6512v31.9552Z" style="fill:#fff; stroke-width:0px;"/><path d="m298.7064,78.3476h-36.4831V25.1266h36.4831v10.652h-25.8319v10.6512c5.8265,0,11.6538,0,17.4806,0,.0004,3.5507.0004,7.1013,0,10.652-5.8269,0-11.6534,0-17.4806,0v10.6145h25.8319v10.6512Z" style="fill:#fff; stroke-width:0px;"/><path d="m324.3147,41.0855c.0012-2.2013.418-4.2676,1.2612-6.1979.8384-1.929,1.9828-3.6177,3.4332-5.0662,1.4477-1.4476,3.1348-2.5908,5.0662-3.4325,1.9282-.8406,3.9931-1.2632,6.1983-1.2624h24.4201c-.0004,3.5507-.0004,7.1013,0,10.652h-24.4201c-.7424,0-1.4325.1352-2.0788.408-.6439.2735-1.2066.6494-1.6891,1.1317-.4826.4827-.8603,1.0447-1.1309,1.6887-.2741.6437-.4072,1.3359-.4088,2.0784-.0008.7431.1363,1.442.4088,2.0968.2702.6559.6479,1.2251,1.1309,1.7079.4849.4822,1.046.8593,1.6891,1.1317.6431.2726,1.3341.4074,2.0788.408,3.55,0,7.1012,0,10.6512,0,2.2012.0003,4.2724.4149,6.2162,1.2432,1.9398.8295,3.6357,1.9676,5.0853,3.4149,1.4449,1.4465,2.5837,3.1418,3.4141,5.0845.8308,1.9419,1.2452,4.0139,1.2432,6.2162.0012,2.203-.4172,4.2688-1.2432,6.1979-.8304,1.93-1.9685,3.6187-3.4141,5.0662-1.4516,1.4479-3.1436,2.5925-5.0853,3.4332-1.9398.8412-4.0118,1.2616-6.2162,1.2616h-23.6418v-10.6512h23.6418c.7396-.0003,1.4369-.1364,2.0776-.4088.6396-.2711,1.2086-.6492,1.6891-1.1317.4822-.4826.8559-1.0448,1.1321-1.6887.2714-.644.4084-1.335.4088-2.0784-.0004-.7423-.1375-1.435-.4088-2.0784-.2738-.6429-.6491-1.2056-1.1321-1.6887-.4786-.482-1.0476-.8583-1.6891-1.1317-.6411-.2715-1.3345-.4085-2.0776-.408-3.55,0-7.1012,0-10.6512,0-2.2032-.0003-4.2673-.4201-6.1983-1.2624-1.9282-.8408-3.6177-1.9854-5.0662-3.4325-1.4489-1.4488-2.5925-3.1425-3.4332-5.0845-.844-1.9417-1.2608-4.0139-1.2612-6.217Z" style="fill:#fff; stroke-width:0px;"/><path d="m384.5114,78.3476h-10.6512V25.1266h10.6512c.0004,7.1012.0004,14.2022,0,21.3032,7.0892,0,14.1773,0,21.2665,0v-21.3032h10.6512v53.2209h-10.6512v-21.2657c-7.0892,0-14.1773,0-21.2665,0,.0004,7.0885.0004,14.1772,0,21.2657Z" style="fill:#fff; stroke-width:0px;"/><path d="m478.4464,51.9598c.0004,2.524-.3271,4.9549-.9838,7.2929-.6555,2.3385-1.5776,4.5274-2.765,6.5692-1.1898,2.0411-2.6236,3.903-4.3047,5.5858-1.6859,1.6825-3.5349,3.1233-5.5671,4.3234-2.0298,1.2005-4.2198,2.1281-6.5688,2.7837-2.3534.6555-4.7873.983-7.3112.9834-2.5243,0-4.955-.3268-7.2933-.9834-2.3398-.6558-4.5267-1.5836-6.5688-2.7837-2.0414-1.1994-3.903-2.6417-5.5862-4.3234-1.6808-1.6831-3.12-3.5439-4.3238-5.5858-1.2006-2.0421-2.1259-4.2305-2.7829-6.5692-.6563-2.338-.9838-4.7689-.9838-7.2929.0008-2.5238.3244-4.9609.9838-7.3112.6543-2.3507,1.5819-4.5405,2.7829-6.5692,1.2002-2.0285,2.6403-3.8844,4.3238-5.5667,1.682-1.6816,3.5436-3.1181,5.5862-4.3051,2.043-1.1886,4.2338-2.1091,6.5688-2.7654,2.3402-.655,4.7685-.9831,7.2933-.9834,2.5192.0003,4.9602.3288,7.3112.9834,2.349.6572,4.543,1.5779,6.5688,2.7654,2.0294,1.187,3.8831,2.6231,5.5671,4.3051,1.6812,1.6822,3.1165,3.5386,4.3047,5.5667,1.1906,2.0292,2.1071,4.219,2.765,6.5692.6579,2.3508.9862,4.7879.9838,7.3112Zm-10.5771,0c.002-2.3257-.4459-4.5215-1.3365-6.5876-.8878-2.0655-2.0992-3.8596-3.6185-5.3818-1.5218-1.521-3.3165-2.727-5.3818-3.6181-2.0665-.8912-4.2589-1.3369-6.5868-1.3365-2.3554-.0005-4.5494.4458-6.6059,1.3365-2.0561.8912-3.8485,2.0972-5.3818,3.6181-1.5361,1.5218-2.7491,3.3165-3.6377,5.3818-.8906,2.0665-1.3337,4.2613-1.3353,6.5876.0004,2.3269.4427,4.5085,1.3353,6.5509.8898,2.0411,2.1043,3.8278,3.6377,5.3627,1.5329,1.5331,3.3261,2.7463,5.3818,3.6373,2.0565.8902,4.2513,1.3359,6.6059,1.3357,2.3259,0,4.5207-.4453,6.5868-1.3357,2.0669-.8909,3.8624-2.1034,5.3818-3.6373,1.523-1.5342,2.728-3.3218,3.6185-5.3627.8942-2.0412,1.3381-4.2244,1.3365-6.5509Z" style="fill:#fff; stroke-width:0px;"/><path d="m496.0752,78.3476h-10.6512V25.1266h21.3024c1.9513.0002,3.8361.2548,5.6412.7611,1.8047.5081,3.4918,1.2253,5.0662,2.1526,1.57.927,3.0069,2.0412,4.3047,3.34,1.2978,1.2994,2.412,2.7411,3.34,4.3242.9257,1.5843,1.6453,3.2786,2.153,5.0845.5061,1.806.7579,3.686.7615,5.6408-.0012,1.8314-.2283,3.6126-.6874,5.3443-.4574,1.7324-1.1117,3.3783-1.9665,4.9363-.8583,1.5595-1.9007,2.9946-3.1368,4.3051-1.2393,1.3121-2.6236,2.4501-4.1565,3.4141,1.9677,4.6393,3.9345,9.2786,5.9018,13.9179h-11.3206c-1.5457-3.5754-3.0918-7.1507-4.6382-10.7261-3.9708.025-7.9428.0499-11.9136.0749v10.6512Zm0-42.5689v21.3032c3.55,0,7.1012,0,10.6512,0,1.4604,0,2.8327-.2796,4.1194-.8352,1.2887-.5569,2.4124-1.3178,3.3783-2.2825.9643-.9657,1.7238-2.0964,2.2821-3.3958.5583-1.299.8348-2.6785.8344-4.1385-.0004-1.4592-.2793-2.8385-.8344-4.1378-.5575-1.2991-1.3178-2.4314-2.2821-3.3958-.9651-.9651-2.092-1.7254-3.3783-2.2825-1.2867-.5572-2.659-.8357-4.1194-.8352h-10.6512Z" style="fill:#fff; stroke-width:0px;"/><path d="m571.4537,78.3476h-36.4831V25.1266h36.4831v10.652h-25.8319c.0004,3.5505.0004,7.1009,0,10.6512,5.8269,0,11.6542,0,17.4806,0v10.652c-5.8269,0-11.6534,0-17.4806,0,.0004,3.5382.0004,7.0763,0,10.6145h25.8319v10.6512Z" style="fill:#fff; stroke-width:0px;"/><path d="m575.2014,41.0855c.0012-2.2013.418-4.2676,1.2612-6.1979.8412-1.929,1.9896-3.6177,3.4332-5.0662,1.4465-1.4476,3.1344-2.5908,5.0662-3.4325,1.9294-.8406,3.9951-1.2632,6.1983-1.2624h24.4213c.0004,3.5507.0004,7.1013,0,10.652h-24.4213c-.7408,0-1.4333.1352-2.0788.408-.6423.2735-1.205.6494-1.6879,1.1317-.4798.4827-.8623,1.0447-1.1321,1.6887-.273.6437-.41,1.3359-.4088,2.0784.0012.7431.1367,1.442.4088,2.0968.2745.6559.6499,1.2251,1.1321,1.7079.4818.4822,1.046.8593,1.6879,1.1317.6415.2726,1.3357.4074,2.0788.408,3.5496,0,7.1008,0,10.6512,0,2.202.0003,4.2764.4149,6.2174,1.2432,1.9398.8295,3.6349,1.9676,5.0841,3.4149,1.4492,1.4465,2.5873,3.1418,3.4141,5.0845.8288,1.9419,1.2432,4.0139,1.2432,6.2162.0004,2.203-.414,4.2688-1.2432,6.1979-.83,1.93-1.9681,3.6187-3.4141,5.0662-1.4465,1.4479-3.1456,2.5925-5.0841,3.4332-1.9426.8412-4.0138,1.2616-6.2174,1.2616h-23.6418v-10.6512h23.6418c.7447-.0003,1.4349-.1364,2.0788-.4088.6443-.2711,1.207-.6492,1.6879-1.1317.4837-.4826.8583-1.0448,1.1321-1.6887.2734-.644.4088-1.335.4088-2.0784.0016-.7423-.1363-1.435-.4088-2.0784-.2738-.6429-.6499-1.2056-1.1321-1.6887-.4818-.482-1.0436-.8583-1.6879-1.1317-.6427-.2715-1.3361-.4085-2.0788-.408-3.5496,0-7.1008,0-10.6512,0-2.2012-.0003-4.2677-.4201-6.1983-1.2624-1.9302-.8408-3.6197-1.9854-5.0662-3.4325-1.4469-1.4488-2.5913-3.1425-3.4332-5.0845-.8408-1.9417-1.2624-4.0139-1.2612-6.217Z" style="fill:#fff; stroke-width:0px;"/><path d="m36.7805,34.7308c.8168.2966,1.6403.5988,2.4586.8885.8212.2942.9523.6484,1.0158,1.5954.0293.3737.4513.7539.8654.8477.2966.0662,1.129.2509,1.422.3201.2964.0703.5909.1471.8874.2139.4177.0942.7367-.145.7446-.5113.0109-.5062.2373-.6629.6338-.5335,1.4415.4724,2.8933.9326,4.3431,1.3485,1.1875.3385,1.3082.4565,1.9806.6631,1.7117.5155,2.8319.6097,2.4782,2.1803l-2.7728,12.3731,11.7902-6.5111.6757-3.9232c.3035-1.7681,1.2284-1.2513,3.2092-1.0571.6712.0693,1.0937.0672,2.2712.2018.7015.0835,1.4063.1496,2.107.2154.0105.001.0211.0023.0316.0032.2298.0243.7177.0714.553.5001-.1401.3398.0652.6839.4871.7576.2993.0523.6014.0949.8984.1433.2962.0487,1.1431.1998,1.4387.2521.4218.0734.9576-.1152,1.1249-.4496.2471-.4954.6097-.8086,1.1361-.7755.069.0043.1385.0062.2075.0104,1.6745.1009,3.3595.18,5.0356.252,2.3005.0923,3.5436-6.916,1.3777-7.5944-1.6323-.5102-3.2703-1.033-4.9053-1.5332-.4107-.1255-.7029-.3243-.7413-.8188-.0807-1.001-2.2875-1.1865-3.1909-1.3923-.4184-.0908-.7337.1491-.7423.519-.0026.2482-.3842.1897-.5289.1539-.7504-.2115-1.5052-.424-2.2577-.6285-1.7878-.4767-2.062-.636-3.1943-.9275-1.2967-.3353-1.9828-.5986-1.7756-1.7257l.6305-3.4412c.2485-.9348.3294-1.7914,1.4217-2.0779,4.4446-1.1742,7.984-4.6068,8.9433-9.403,1.3426-6.7127-3.039-13.2825-9.7495-14.6247-6.7105-1.3422-13.2785,3.0375-14.6211,9.7502-.9586,4.7925.7087,9.3714,4.3568,12.157,1.139.8698.8737,1.5092.632,2.7738l-.6788,3.1248c-.1839.8433-1.1257,1.0118-2.1248.8663-1.2581-.1868-1.4658-.1201-3.3833-.381-1.3878-.1837-2.7935-.3495-4.1977-.5078-.2998-.0311-.9799-.0589-.7804-.5706.138-.3441-.0644-.6875-.4818-.7639-.9796-.167-3.0299-.808-3.481.0578-.2487.4875-.6134.7392-1.1443.6907-.9174-.0825-1.8393-.1659-2.7568-.2484-2.2565-.206-3.8047,6.7449-1.6485,7.5403Zm21.9626-23.3396c.6472-3.2359,3.8228-5.3509,7.058-4.7039,3.2396.648,5.3529,3.8209,4.7056,7.0568-.2809,1.4044-1.3528,2.5461-2.3878,3.3923-.2117.174-.3464.0533-.5852.2003-2.1145-2.4461-7.4916-1.9817-7.8773-1.7991-.238-.3289-.3277-.1305-.4932-.4954-.5009-1.1028-.6761-2.3715-.4202-3.651Z" style="fill:#fff; stroke-width:0px;"/><path d="m100.2842,75.8686c-1.5531-7.618-1.2826-5.8687-4.0036-.7575-3.6005,6.7676-9.6988,12.5882-14.6011,15.3299-1.3042.7347-2.8753,1.4303-.5379,2.0061,1.041.2586,2.2459.5285,3.2537.7555,2.6598.6042,3.1163.7023,1.0975,2.4664-6.2304,5.4336-25.0279,7.5385-28.4833-3.4609-1.2483-3.9765-.5951-8.523.1259-12.7145l-15.7797,8.7142c-.0154.0221-.0275.0452-.043.0672-2.2415,3.1759-5.2816,4.5335-8.5464,4.6763-1.3654.0597-2.7685-.0929-4.1715-.4189-6.4796-1.5059-12.9149-6.6634-15.1958-11.2834-1.1857-2.405-.7186-2.3222,1.961-1.8546,1.0212.1789,2.2337.3925,3.2977.5549,2.5301.3906,1.2868-.7886.3924-1.9053-3.6751-4.6016-7.2952-12.9398-7.7847-21.0049-.3352-5.4989-.2454-5.2645-3.6882-.1318C-.3292,68.6999-.3808,79.4701.2313,84.9055c.2593,2.3097.823,1.5458,1.3928-.1109.7269-2.1197,1.5176-4.2699,3.2383-3.0817,5.1215,14.9321,11.6597,19.5005,23.3336,28.2699,5.005,3.7567,9.4365,8.2321,11.8226,13.7045,1.8148,4.1645,1.3876,4.209,4.564.9129,4.1917-4.3481,10.1832-6.6051,16.5856-8.1378,13.8203-3.313,21.9821-5.7454,32.0251-17.0819,1.9544-.4098,1.9563,1.6537,1.8262,3.7845-.1766,2.8645.4532,2.4567,1.6947.1443,2.6663-4.9818,6.2272-14.4369,3.5698-27.4407Z" style="fill:#fff; stroke-width:0px;"/><polygon points="70.331 47.4605 61.8452 52.1468 61.8452 52.1468 70.331 47.4605" style="fill:#fff; stroke-width:0px;"/><rect x="55.8157" y="48.5887" width="0" height="13.7757" style="fill:#fff; stroke-width:0px;"/><polygon points="60.1705 65.127 70.331 47.4605 61.8452 52.1468 49.7862 58.8063 49.7862 58.8063 37.2732 65.7165 37.2733 65.7166 37.2733 65.7166 47.5667 68.7104 48.4608 68.9704 47.019 71.1542 36.8191 86.604 44.1689 82.5451 57.9175 74.9524 70.3486 68.0874 60.1705 65.127" style="fill:#68bd45; stroke-width:0px;"/><path d="m168.9741,107.4385c-.1036,0-.2216.0239-.4124.0877-1.0568.4415-2.1697.777-3.3073.9962-1.1392.2208-2.2574.3331-3.3233.3331-3.2543,0-5.6033-.5499-6.9825-1.6345-1.3492-1.0615-2.0334-2.8148-2.0334-5.2128s.6842-4.1521,2.0338-5.2136c1.3787-1.0846,3.7277-1.6345,6.9821-1.6345,1.0619,0,2.18.1124,3.3233.3331,1.1412.2208,2.2542.5563,3.3061.9954.1642.0693.304.1028.428.1028.5232,0,.8615-.3267.8615-.8328,0-.2327-.0873-.6607-.6766-.9157-1.2042-.5005-2.4136-.8679-3.5946-1.0934-1.1803-.2255-2.4076-.3403-3.6476-.3403-3.5843,0-6.3385.6615-8.1854,1.9669-1.8916,1.3357-2.8511,3.5671-2.8511,6.6322s.9591,5.2957,2.8511,6.6322c1.8473,1.3046,4.6016,1.9661,8.1854,1.9661,1.2385,0,2.4658-.114,3.6476-.3395,1.1863-.2271,2.3956-.5953,3.5954-1.095.6001-.251.6898-.6718.6898-.9006,0-.514-.3411-.8328-.8898-.8328Z" style="fill:#fff; stroke-width:0px;"/><path d="m208.1481,95.5249c-1.7429-1.4042-4.4872-2.1159-8.156-2.1159s-6.4114.7125-8.15,2.1167c-1.7648,1.4265-2.6598,3.6078-2.6598,6.4824s.895,5.0558,2.6598,6.4816c1.7385,1.4042,4.4804,2.1167,8.15,2.1167s6.413-.7117,8.1564-2.1159c1.77-1.4257,2.6674-3.607,2.6674-6.4824s-.8974-5.0558-2.6678-6.4832Zm-8.156,13.3305c-2.9961,0-5.2447-.5292-6.6832-1.5732-1.3974-1.0145-2.1059-2.7893-2.1059-5.2742s.7085-4.2605,2.1059-5.275c1.4385-1.044,3.6871-1.5732,6.6832-1.5732s5.2471.5292,6.6904,1.574c1.4018,1.0145,2.1127,2.7885,2.1127,5.2742s-.7109,4.2589-2.1127,5.2734c-1.4433,1.0448-3.6946,1.574-6.6904,1.574Z" style="fill:#fff; stroke-width:0px;"/><path d="m248.3409,93.7063c-.4674,0-.7989.2303-.9105.632-.0709.2566-.1068.5435-.1068.8535v11.9574l-13.8143-12.8691c-.3933-.3578-.7519-.5316-1.0966-.5316-.2973,0-.989.1251-.989,1.2871v13.8733c0,.3212.0442.6049.1307.8408.0761.2088.2945.5595.9009.5595.3897,0,.6949-.1976.8372-.5419.1008-.2423.1518-.5316.1518-.8583v-12.0467l13.9275,12.901c.4029.3674.7571.5459,1.0827.5459.3323,0,.8898-.1705.8898-1.315v-13.8023c0-.3379-.0462-.6392-.1371-.8958-.1335-.3746-.4491-.5897-.8663-.5897Z" style="fill:#fff; stroke-width:0px;"/><path d="m286.2537,101.6933c-.8555-.3012-1.8254-.522-2.8822-.6575-1.0356-.1323-2.1255-.2311-3.2392-.2925-1.1034-.0614-2.1717-.1275-3.2041-.1984-1.0129-.0693-1.9358-.1905-2.7431-.361-.7702-.1618-1.3847-.4072-1.827-.73-.3833-.2805-.5694-.6686-.5694-1.1875,0-.7762.2861-1.3644.875-1.7963.6411-.4718,1.5074-.8097,2.5737-1.005,2.3223-.424,5.1252-.3993,7.7667.0438,1.3704.2295,2.551.5499,3.4655.93.3515.2.8739.1203,1.1376-.2152.1478-.1865.2231-.3961.2231-.6216,0-.3499-.1717-.6248-.4614-.7515-.5049-.2375-1.2169-.471-2.1163-.6933-.8966-.2216-1.9143-.4025-3.0236-.5395-2.1366-.2646-4.486-.2877-6.6497-.0072-1.0516.1363-2.0155.3817-2.865.7284-.881.3594-1.5955.8663-2.1235,1.5062-.5459.6631-.8228,1.5062-.8228,2.5064,0,.93.2881,1.6895.8563,2.2585.5375.5371,1.2632.9436,2.1565,1.2074.8503.2518,1.8174.4335,2.8738.5387,1.038.1052,2.1267.1793,3.2352.2223,1.0942.0414,2.1681.1052,3.1918.1897,1.0061.0829,1.9258.2271,2.7331.4288.7663.1913,1.3775.4798,1.8178.8567.3997.3419.5941.8129.5941,1.4401,0,.8256-.2722,1.456-.8324,1.9262-.5973.5029-1.4078.8671-2.41,1.0831-2.1191.4574-4.7514.416-7.2423.0797-1.2779-.1721-2.4403-.3793-3.4548-.616-1.0077-.2367-1.7553-.4519-2.2123-.6368-.1172-.051-.2387-.0765-.3606-.0765-.4718,0-.7766.322-.7766.8193,0,.4033.2184.73.6208.9237.4802.2208,1.2205.4511,2.2625.7053,1.0089.2471,2.192.4598,3.5165.6328,1.3213.1713,2.6765.2582,4.0274.2582,1.1014,0,2.18-.0781,3.2061-.2319,1.0392-.1546,1.99-.42,2.8256-.7882.8627-.3809,1.5572-.9061,2.0641-1.562.522-.675.7866-1.5222.7866-2.5168,0-.9866-.2829-1.8035-.8412-2.4267-.5355-.5969-1.2596-1.0591-2.1526-1.3739Z" style="fill:#fff; stroke-width:0px;"/><path d="m326.0883,93.7693c-.2279-.0414-.4933-.063-.7894-.063h-16.4526c-.2554,0-.5132.0207-.7683.0622-.4311.0709-.6886.3969-.6886.8703,0,.4503.2682.7531.6981.789.2279.0199.481.0303.7587.0303h7.2299v13.3943c0,.322.0494.616.1466.8743.1399.3698.457.5826.8711.5826.4559,0,.7822-.2239.895-.6136.0717-.2486.108-.5324.108-.8432v-13.3943h7.202c.2885,0,.5399-.0104.7523-.0303.4172-.0375.6762-.3403.6762-.789,0-.6949-.4877-.8408-.6392-.8695Z" style="fill:#fff; stroke-width:0px;"/><path d="m358.3894,102.8337c.6487-.353,1.1779-.8456,1.5732-1.4632.3997-.6264.6025-1.4178.6025-2.3526,0-1.2799-.2582-2.3-.7675-3.0316-.5108-.7356-1.2357-1.2727-2.1545-1.5979-.8743-.3092-1.9007-.5029-3.0511-.5754-1.1309-.0709-2.3721-.1068-3.6887-.1068h-4.1095c-.4383,0-.622.0422-.7579.1777-.1474.149-.1745.3714-.1745.7547v14.1857c0,.3435.0526.6495.1566.9093.0861.2152.3192.5754.9177.5754.4092,0,.7117-.2279.83-.6248.0773-.259.1164-.5483.1164-.8599v-4.9204h4.7151l5.5595,5.9333c.153.1658.32.2877.4953.3618.1757.0741.3343.11.4849.11.5487,0,.8898-.3355.8898-.8758,0-.2901-.1211-.5587-.3534-.7914l-4.6227-4.8614c.426-.047.8559-.1148,1.2855-.204.7392-.1538,1.4297-.4041,2.0533-.7428Zm.155-3.8158c0,.9253-.2351,1.5827-.7192,2.0107-.5112.4519-1.2034.7531-2.0569.8958-.9105.1514-1.9131.2279-2.9802.2279h-4.906v-6.6944h3.0212c1.7214,0,3.1906.0701,4.3665.2088,1.1034.1315,1.941.4479,2.4885.9396.522.4702.7862,1.2815.7862,2.4116Z" style="fill:#fff; stroke-width:0px;"/><path d="m398.6715,93.7063c-.4064,0-.7169.2112-.8511.5802-.0916.251-.1379.5276-.1379.8201v6.8585c0,1.5788-.2291,2.8993-.681,3.9234-.4391.9962-1.1787,1.719-2.2609,2.2099-1.1082.5021-2.6797.7571-4.6709.7571s-3.5659-.255-4.6785-.7579c-1.0874-.4909-1.8318-1.2138-2.2753-2.2099-.4563-1.0241-.6874-2.3438-.6874-3.9226v-6.8585c0-.2893-.043-.5626-.1283-.8129-.1275-.373-.4363-.5874-.8468-.5874-.4423,0-.7734.2112-.9077.5802-.0916.251-.1379.5276-.1379.8201v6.8585c0,3.0714.8272,5.3085,2.459,6.6505,1.6074,1.3205,4.0306,1.9908,7.2028,1.9908s5.5914-.6702,7.1897-1.9924c1.6214-1.3413,2.4438-3.5783,2.4438-6.6489v-6.8585c0-.2893-.043-.5626-.1283-.8129-.1275-.373-.457-.5874-.9033-.5874Z" style="fill:#fff; stroke-width:0px;"/><path d="m438.1212,107.4385c-.1036,0-.2216.0239-.4124.0877-1.0568.4415-2.1697.777-3.3073.9962-1.1392.2208-2.2574.3331-3.3233.3331-3.2543,0-5.6033-.5499-6.9825-1.6345-1.3492-1.0615-2.0334-2.8148-2.0334-5.2128s.6842-4.1521,2.0338-5.2136c1.3787-1.0846,3.7277-1.6345,6.9821-1.6345,1.0619,0,2.18.1124,3.3233.3331,1.1412.2208,2.2538.5563,3.3061.9954.1642.0693.304.1028.4276.1028.5236,0,.8615-.3267.8615-.8328,0-.2327-.0869-.6607-.6766-.9157-1.2038-.5005-2.4132-.8679-3.5942-1.0934-1.1803-.2255-2.4076-.3403-3.6476-.3403-3.5847,0-6.3385.6615-8.1854,1.9669-1.892,1.3357-2.8511,3.5671-2.8511,6.6322s.9591,5.2957,2.8511,6.6322c1.8473,1.3046,4.6016,1.9661,8.1854,1.9661,1.2385,0,2.4658-.114,3.6476-.3395,1.1863-.2271,2.3956-.5953,3.5954-1.095.6001-.251.6898-.6718.6898-.9006,0-.514-.3411-.8328-.8898-.8328Z" style="fill:#fff; stroke-width:0px;"/><path d="m475.6252,93.7693c-.2279-.0414-.4937-.063-.7894-.063h-16.4526c-.2554,0-.5132.0207-.7683.0622-.4311.0709-.6886.3969-.6886.8703,0,.4503.2682.7531.6981.789.2279.0199.481.0303.7587.0303h7.2299v13.3943c0,.322.0494.616.1466.8743.1399.3698.457.5826.8711.5826.4559,0,.7822-.2239.895-.6136.0717-.2494.108-.5324.108-.8432v-13.3943h7.202c.2885,0,.5395-.0104.7523-.0303.4172-.0375.6762-.3403.6762-.789,0-.6949-.4877-.8408-.6392-.8695Z" style="fill:#fff; stroke-width:0px;"/><path d="m506.4913,95.458c.2957,0,.5531-.0159.771-.047.318-.0438.6575-.2845.6575-.8288,0-.4614-.2455-.7714-.6575-.8296-.2192-.0303-.4758-.0462-.771-.0462h-11.3226c-.2431,0-.4885.0151-.7376.0454-.4347.0534-.7049.3825-.7049.8583,0,.4407.2642.7483.6886.8017.2383.0303.4897.0462.7539.0462h4.651v13.0994h-4.651c-.2642,0-.5156.0159-.7523.0462-.426.0534-.6902.361-.6902.8017,0,.483.2634.8033.7061.8583.2479.0303.4933.0454.7364.0454h11.3226c.2953,0,.5519-.0159.7726-.0462.4104-.0582.6559-.3682.6559-.8296,0-.5443-.3395-.785-.6559-.8288-.2196-.0311-.477-.047-.7726-.047h-4.651v-13.0994h4.651Z" style="fill:#fff; stroke-width:0px;"/><path d="m545.2118,95.5249c-1.7429-1.4042-4.4872-2.1159-8.1564-2.1159s-6.411.7125-8.1496,2.1167c-1.7648,1.4265-2.6598,3.6078-2.6598,6.4824s.895,5.0558,2.6598,6.4816c1.7385,1.4042,4.4804,2.1167,8.1496,2.1167s6.4134-.7117,8.1564-2.1159c1.7704-1.4257,2.6678-3.607,2.6678-6.4824s-.8974-5.0558-2.6678-6.4832Zm-8.1564,13.3305c-2.9957,0-5.2443-.5292-6.6828-1.5732-1.3974-1.0145-2.1059-2.7893-2.1059-5.2742s.7085-4.2605,2.1059-5.275c1.4385-1.044,3.6871-1.5732,6.6828-1.5732s5.2471.5292,6.6908,1.574c1.4018,1.0145,2.1127,2.7885,2.1127,5.2742s-.7109,4.2589-2.1127,5.2734c-1.4437,1.0448-3.6946,1.574-6.6908,1.574Z" style="fill:#fff; stroke-width:0px;"/><path d="m586.2709,94.296c-.1335-.3746-.4491-.5897-.8663-.5897-.4674,0-.7993.2303-.9105.632-.0709.2566-.1068.5435-.1068.8535v11.9574l-13.8143-12.8691c-.3933-.3578-.7519-.5316-1.0966-.5316-.2977,0-.989.1251-.989,1.2871v13.8733c0,.322.0442.6049.1307.8408.0761.2088.2945.5595.9009.5595.3893,0,.6949-.1976.8372-.5419.1004-.2423.1518-.5308.1518-.8583v-12.0467l13.9275,12.901c.4029.3674.7571.5459,1.0827.5459.3323,0,.8898-.1705.8898-1.315v-13.8023c0-.3379-.0462-.6392-.1371-.8958Z" style="fill:#fff; stroke-width:0px;"/></g></g></svg>